<?xml version="1.0" encoding="utf-8"?>
<!-- Generator: Adobe Illustrator 21.1.0, SVG Export Plug-In . SVG Version: 6.00 Build 0)  -->
<svg version="1.1" xmlns="http://www.w3.org/2000/svg" xmlns:xlink="http://www.w3.org/1999/xlink" x="0px" y="0px"
	 viewBox="0 0 346.2 350.1" style="enable-background:new 0 0 346.2 350.1;" xml:space="preserve">
<style type="text/css">
	.st0{fill:#567DD4;}
</style>
<g id="Rhombus">
	<path class="st0" d="M172.5,336L59.5,173.8L172.5,11.5l113.1,162.2L172.5,336z M71.7,173.8l100.9,144.8l100.9-144.8L172.5,29
		L71.7,173.8z"/>
</g>
<g id="Dots">
	<path class="st0" d="M171,348c-0.8-0.8-0.8-2,0-2.8l0,0c0.8-0.8,2.1-0.8,2.8,0l0,0c0.8,0.8,0.8,2.1,0,2.8l0,0
		c-0.4,0.4-0.9,0.6-1.4,0.6l0,0C171.9,348.6,171.4,348.4,171,348z M178.7,341.6c-0.8-0.8-0.8-2,0-2.8l0,0c0.8-0.8,2-0.8,2.8,0l0,0
		c0.8,0.8,0.8,2,0,2.8l0,0c-0.4,0.4-0.9,0.6-1.4,0.6l0,0C179.6,342.1,179.1,342,178.7,341.6z M163.3,340.1c-0.8-0.8-0.8-2,0-2.8l0,0
		c0.8-0.8,2-0.8,2.8,0l0,0c0.8,0.8,0.8,2.1,0,2.8l0,0c-0.4,0.4-0.9,0.6-1.4,0.6l0,0C164.2,340.7,163.6,340.5,163.3,340.1z
		 M186.4,333.7c-0.8-0.8-0.8-2,0-2.8l0,0c0.8-0.8,2-0.8,2.8,0l0,0c0.8,0.8,0.8,2,0,2.8l0,0c-0.4,0.4-0.9,0.6-1.4,0.6l0,0
		C187.3,334.3,186.8,334.1,186.4,333.7z M155.5,332.3c-0.8-0.8-0.8-2,0-2.8l0,0c0.8-0.8,2.1-0.8,2.8,0l0,0c0.8,0.8,0.8,2,0,2.8l0,0
		c-0.4,0.4-0.9,0.6-1.4,0.6l0,0C156.4,332.9,155.9,332.7,155.5,332.3z M194.2,325.9c-0.8-0.8-0.8-2,0-2.8l0,0c0.8-0.8,2-0.8,2.8,0
		l0,0c0.8,0.8,0.8,2,0,2.8l0,0c-0.4,0.4-0.9,0.6-1.4,0.6l0,0C195.1,326.5,194.6,326.3,194.2,325.9z M147.8,324.5
		c-0.8-0.8-0.8-2,0-2.8l0,0c0.8-0.8,2-0.8,2.8,0l0,0c0.8,0.8,0.8,2,0,2.8l0,0c-0.4,0.4-0.9,0.6-1.4,0.6l0,0
		C148.7,325.1,148.2,324.9,147.8,324.5z M201.9,318.1c-0.8-0.8-0.8-2,0-2.8l0,0c0.8-0.8,2-0.8,2.8,0l0,0c0.8,0.8,0.8,2,0,2.8l0,0
		c-0.4,0.4-0.9,0.6-1.4,0.6l0,0C202.8,318.7,202.3,318.5,201.9,318.1z M140.1,316.7c-0.8-0.8-0.8-2,0-2.8l0,0c0.8-0.8,2.1-0.8,2.8,0
		l0,0c0.8,0.8,0.8,2,0,2.8l0,0c-0.4,0.4-0.9,0.6-1.4,0.6l0,0C141,317.2,140.5,317,140.1,316.7z M209.6,310.2c-0.8-0.8-0.8-2,0-2.8
		l0,0c0.8-0.8,2-0.8,2.8,0l0,0c0.8,0.8,0.8,2,0,2.8l0,0c-0.4,0.4-0.9,0.6-1.4,0.6l0,0C210.5,310.8,210,310.6,209.6,310.2z
		 M132.4,308.8c-0.8-0.8-0.8-2.1,0-2.8l0,0c0.8-0.8,2.1-0.8,2.8,0l0,0c0.8,0.8,0.8,2,0,2.8l0,0c-0.4,0.4-0.9,0.6-1.4,0.6l0,0
		C133.3,309.4,132.7,309.2,132.4,308.8z M217.3,302.4c-0.8-0.8-0.8-2,0-2.8l0,0c0.8-0.8,2-0.8,2.8,0l0,0c0.8,0.8,0.8,2,0,2.8l0,0
		c-0.4,0.4-0.9,0.6-1.4,0.6l0,0C218.2,303,217.7,302.8,217.3,302.4z M124.6,301c-0.8-0.8-0.8-2.1,0-2.8l0,0c0.8-0.8,2.1-0.8,2.8,0
		l0,0c0.8,0.8,0.8,2,0,2.8l0,0c-0.4,0.4-0.9,0.6-1.4,0.6l0,0C125.5,301.6,125,301.4,124.6,301z M225.1,294.6c-0.8-0.8-0.8-2,0-2.8
		l0,0c0.8-0.8,2-0.8,2.8,0l0,0c0.8,0.8,0.8,2,0,2.8l0,0c-0.4,0.4-0.9,0.6-1.4,0.6l0,0C226,295.2,225.5,295,225.1,294.6z
		 M116.9,293.2c-0.8-0.8-0.8-2.1,0-2.8l0,0c0.8-0.8,2-0.8,2.8,0l0,0c0.8,0.8,0.8,2,0,2.8l0,0c-0.4,0.4-0.9,0.6-1.4,0.6l0,0
		C117.8,293.8,117.3,293.6,116.9,293.2z M232.8,286.8c-0.8-0.8-0.8-2,0-2.8l0,0c0.8-0.8,2-0.8,2.8,0l0,0c0.8,0.8,0.8,2,0,2.8l0,0
		c-0.4,0.4-0.9,0.6-1.4,0.6l0,0C233.7,287.3,233.2,287.1,232.8,286.8z M109.2,285.3c-0.8-0.8-0.8-2,0-2.8l0,0c0.8-0.8,2.1-0.8,2.8,0
		l0,0c0.8,0.8,0.8,2.1,0,2.8l0,0c-0.4,0.4-0.9,0.6-1.4,0.6l0,0C110.1,285.9,109.6,285.7,109.2,285.3z M240.5,278.9
		c-0.8-0.8-0.8-2,0-2.8l0,0c0.8-0.8,2-0.8,2.8,0l0,0c0.8,0.8,0.8,2,0,2.8l0,0c-0.4,0.4-0.9,0.6-1.4,0.6l0,0
		C241.4,279.5,240.9,279.3,240.5,278.9z M101.5,277.5c-0.8-0.8-0.8-2,0-2.8l0,0c0.8-0.8,2.1-0.8,2.8,0l0,0c0.8,0.8,0.8,2.1,0,2.8
		l0,0c-0.4,0.4-0.9,0.6-1.4,0.6l0,0C102.4,278.1,101.8,277.9,101.5,277.5z M248.2,271.1c-0.8-0.8-0.8-2,0-2.8l0,0
		c0.8-0.8,2-0.8,2.8,0l0,0c0.8,0.8,0.8,2,0,2.8l0,0c-0.4,0.4-0.9,0.6-1.4,0.6l0,0C249.1,271.7,248.6,271.5,248.2,271.1z M93.7,269.7
		c-0.8-0.8-0.8-2,0-2.8l0,0c0.8-0.8,2-0.8,2.8,0l0,0c0.8,0.8,0.8,2.1,0,2.8l0,0c-0.4,0.4-0.9,0.6-1.4,0.6l0,0
		C94.6,270.3,94.1,270.1,93.7,269.7z M256,263.3c-0.8-0.8-0.8-2,0-2.8l0,0c0.8-0.8,2.1-0.8,2.8,0l0,0c0.8,0.8,0.8,2,0,2.8l0,0
		c-0.4,0.4-0.9,0.6-1.4,0.6l0,0C256.9,263.8,256.4,263.6,256,263.3z M86,261.8c-0.8-0.8-0.8-2,0-2.8l0,0c0.8-0.8,2-0.8,2.8,0l0,0
		c0.8,0.8,0.8,2,0,2.8l0,0c-0.4,0.4-0.9,0.6-1.4,0.6l0,0C86.9,262.4,86.4,262.2,86,261.8z M263.7,255.4c-0.8-0.8-0.8-2,0-2.8l0,0
		c0.8-0.8,2-0.8,2.8,0l0,0c0.8,0.8,0.8,2,0,2.8l0,0c-0.4,0.4-0.9,0.6-1.4,0.6l0,0C264.6,256,264.1,255.8,263.7,255.4z M78.3,254
		c-0.8-0.8-0.8-2.1,0-2.8l0,0c0.8-0.8,2.1-0.8,2.8,0l0,0c0.8,0.8,0.8,2,0,2.8l0,0c-0.4,0.4-0.9,0.6-1.4,0.6l0,0
		C79.2,254.6,78.7,254.4,78.3,254z M271.4,247.6c-0.8-0.8-0.8-2,0-2.8l0,0c0.8-0.8,2-0.8,2.8,0l0,0c0.8,0.8,0.8,2.1,0,2.8l0,0
		c-0.4,0.4-0.9,0.6-1.4,0.6l0,0C272.3,248.2,271.8,248,271.4,247.6z M70.6,246.2c-0.8-0.8-0.8-2.1,0-2.8l0,0c0.8-0.8,2-0.8,2.8,0
		l0,0c0.8,0.8,0.8,2,0,2.8l0,0c-0.4,0.4-0.9,0.6-1.4,0.6l0,0C71.5,246.8,70.9,246.6,70.6,246.2z M279.1,239.8c-0.8-0.8-0.8-2,0-2.8
		l0,0c0.8-0.8,2-0.8,2.8,0l0,0c0.8,0.8,0.8,2,0,2.8l0,0c-0.4,0.4-0.9,0.6-1.4,0.6l0,0C280,240.3,279.5,240.1,279.1,239.8z
		 M62.8,238.3c-0.8-0.8-0.8-2.1,0-2.8l0,0c0.8-0.8,2-0.8,2.8,0l0,0c0.8,0.8,0.8,2,0,2.8l0,0c-0.4,0.4-0.9,0.6-1.4,0.6l0,0
		C63.7,238.9,63.2,238.7,62.8,238.3z M286.9,231.9c-0.8-0.8-0.8-2,0-2.8l0,0c0.8-0.8,2-0.8,2.8,0l0,0c0.8,0.8,0.8,2,0,2.8l0,0
		c-0.4,0.4-0.9,0.6-1.4,0.6l0,0C287.8,232.5,287.3,232.3,286.9,231.9z M55.1,230.5c-0.8-0.8-0.8-2.1,0-2.8l0,0
		c0.8-0.8,2.1-0.8,2.8,0l0,0c0.8,0.8,0.8,2.1,0,2.8l0,0c-0.4,0.4-0.9,0.6-1.4,0.6l0,0C56,231.1,55.5,230.9,55.1,230.5z M294.6,224.1
		c-0.8-0.8-0.8-2,0-2.8l0,0c0.8-0.8,2-0.8,2.8,0l0,0c0.8,0.8,0.8,2,0,2.8l0,0c-0.4,0.4-0.9,0.6-1.4,0.6l0,0
		C295.5,224.7,295,224.5,294.6,224.1z M47.4,222.7c-0.8-0.8-0.8-2.1,0-2.8l0,0c0.8-0.8,2-0.8,2.8,0l0,0c0.8,0.8,0.8,2.1,0,2.8l0,0
		c-0.4,0.4-0.9,0.6-1.4,0.6l0,0C48.3,223.3,47.8,223.1,47.4,222.7z M302.3,216.3c-0.8-0.8-0.8-2,0-2.8l0,0c0.8-0.8,2-0.8,2.8,0l0,0
		c0.8,0.8,0.8,2,0,2.8l0,0c-0.4,0.4-0.9,0.6-1.4,0.6l0,0C303.2,216.8,302.7,216.7,302.3,216.3z M39.7,214.8c-0.8-0.8-0.8-2,0-2.8
		l0,0c0.8-0.8,2-0.8,2.8,0l0,0c0.8,0.8,0.8,2,0,2.8l0,0c-0.4,0.4-0.9,0.6-1.4,0.6l0,0C40.6,215.4,40,215.2,39.7,214.8z M310,208.4
		c-0.8-0.8-0.8-2,0-2.8l0,0c0.8-0.8,2-0.8,2.8,0l0,0c0.8,0.8,0.8,2,0,2.8l0,0c-0.4,0.4-0.9,0.6-1.4,0.6l0,0
		C310.9,209,310.4,208.8,310,208.4z M31.9,207c-0.8-0.8-0.8-2,0-2.8l0,0c0.8-0.8,2.1-0.8,2.8,0l0,0c0.8,0.8,0.8,2.1,0,2.8l0,0
		c-0.4,0.4-0.9,0.6-1.4,0.6l0,0C32.8,207.6,32.3,207.4,31.9,207z M317.8,200.6c-0.8-0.8-0.8-2,0-2.8l0,0c0.8-0.8,2-0.8,2.8,0l0,0
		c0.8,0.8,0.8,2,0,2.8l0,0c-0.4,0.4-0.9,0.6-1.4,0.6l0,0C318.7,201.2,318.2,201,317.8,200.6z M24.2,199.2c-0.8-0.8-0.8-2,0-2.8l0,0
		c0.8-0.8,2.1-0.8,2.8,0l0,0c0.8,0.8,0.8,2.1,0,2.8l0,0c-0.4,0.4-0.9,0.6-1.4,0.6l0,0C25.1,199.8,24.6,199.6,24.2,199.2z
		 M325.5,192.8c-0.8-0.8-0.8-2,0-2.8l0,0c0.8-0.8,2-0.8,2.8,0l0,0c0.8,0.8,0.8,2,0,2.8l0,0c-0.4,0.4-0.9,0.6-1.4,0.6l0,0
		C326.4,193.4,325.9,193.2,325.5,192.8z M16.5,191.4c-0.8-0.8-0.8-2,0-2.8l0,0c0.8-0.8,2-0.8,2.8,0l0,0c0.8,0.8,0.8,2,0,2.8l0,0
		c-0.4,0.4-0.9,0.6-1.4,0.6l0,0C17.4,191.9,16.9,191.8,16.5,191.4z M333.2,184.9c-0.8-0.8-0.8-2,0-2.8l0,0c0.8-0.8,2-0.8,2.8,0l0,0
		c0.8,0.8,0.8,2,0,2.8l0,0c-0.4,0.4-0.9,0.6-1.4,0.6l0,0C334.1,185.5,333.6,185.3,333.2,184.9z M8.8,183.5c-0.8-0.8-0.8-2.1,0-2.8
		l0,0c0.8-0.8,2.1-0.8,2.8,0l0,0c0.8,0.8,0.8,2,0,2.8l0,0c-0.4,0.4-0.9,0.6-1.4,0.6l0,0C9.7,184.1,9.1,183.9,8.8,183.5z
		 M340.9,177.1c-0.8-0.8-0.8-2,0-2.8l0,0c0.8-0.8,2-0.8,2.8,0l0,0c0.8,0.8,0.8,2,0,2.8l0,0c-0.4,0.4-0.9,0.6-1.4,0.6l0,0
		C341.8,177.7,341.3,177.5,340.9,177.1z M1.7,175.7c-0.8-0.8-0.8-2,0-2.8l0,0c0.8-0.8,2-0.8,2.8,0l0,0c0.8,0.8,0.8,2,0,2.8l0,0
		c-0.4,0.4-0.9,0.6-1.4,0.6l0,0C2.6,176.3,2.1,176.1,1.7,175.7z M335.3,169.3c-0.8-0.8-0.8-2.1,0-2.8l0,0c0.8-0.8,2-0.8,2.8,0l0,0
		c0.8,0.8,0.8,2,0,2.8l0,0c-0.4,0.4-0.9,0.6-1.4,0.6l0,0C336.2,169.9,335.7,169.7,335.3,169.3z M9.5,167.9c-0.8-0.8-0.8-2,0-2.8l0,0
		c0.8-0.8,2-0.8,2.8,0l0,0c0.8,0.8,0.8,2,0,2.8l0,0c-0.4,0.4-0.9,0.6-1.4,0.6l0,0C10.4,168.5,9.9,168.3,9.5,167.9z M327.6,161.4
		c-0.8-0.8-0.8-2.1,0-2.8l0,0c0.8-0.8,2.1-0.8,2.8,0l0,0c0.8,0.8,0.8,2,0,2.8l0,0c-0.4,0.4-0.9,0.6-1.4,0.6l0,0
		C328.5,162,327.9,161.8,327.6,161.4z M17.2,160c-0.8-0.8-0.8-2,0-2.8l0,0c0.8-0.8,2-0.8,2.8,0l0,0c0.8,0.8,0.8,2,0,2.8l0,0
		c-0.4,0.4-0.9,0.6-1.4,0.6l0,0C18.1,160.6,17.6,160.4,17.2,160z M319.8,153.6c-0.8-0.8-0.8-2.1,0-2.8l0,0c0.8-0.8,2-0.8,2.8,0l0,0
		c0.8,0.8,0.8,2,0,2.8l0,0c-0.4,0.4-0.9,0.6-1.4,0.6l0,0C320.7,154.2,320.2,154,319.8,153.6z M24.9,152.2c-0.8-0.8-0.8-2,0-2.8l0,0
		c0.8-0.8,2-0.8,2.8,0l0,0c0.8,0.8,0.8,2.1,0,2.8l0,0c-0.4,0.4-0.9,0.6-1.4,0.6l0,0C25.8,152.8,25.3,152.6,24.9,152.2z M312.1,145.8
		c-0.8-0.8-0.8-2.1,0-2.8l0,0c0.8-0.8,2.1-0.8,2.8,0l0,0c0.8,0.8,0.8,2.1,0,2.8l0,0c-0.4,0.4-0.9,0.6-1.4,0.6l0,0
		C313,146.4,312.5,146.2,312.1,145.8z M32.6,144.4c-0.8-0.8-0.8-2,0-2.8l0,0c0.8-0.8,2-0.8,2.8,0l0,0c0.8,0.8,0.8,2,0,2.8l0,0
		c-0.4,0.4-0.9,0.6-1.4,0.6l0,0C33.5,145,33,144.8,32.6,144.4z M304.4,137.9c-0.8-0.8-0.8-2.1,0-2.8l0,0c0.8-0.8,2-0.8,2.8,0l0,0
		c0.8,0.8,0.8,2.1,0,2.8l0,0c-0.4,0.4-0.9,0.6-1.4,0.6l0,0C305.3,138.5,304.8,138.3,304.4,137.9z M40.4,136.6c-0.8-0.8-0.8-2,0-2.8
		l0,0c0.8-0.8,2-0.8,2.8,0l0,0c0.8,0.8,0.8,2,0,2.8l0,0c-0.4,0.4-0.9,0.6-1.4,0.6l0,0C41.3,137.1,40.8,136.9,40.4,136.6z
		 M296.6,130.1c-0.8-0.8-0.8-2,0-2.8l0,0c0.8-0.8,2-0.8,2.8,0l0,0c0.8,0.8,0.8,2.1,0,2.8l0,0c-0.4,0.4-0.9,0.6-1.4,0.6l0,0
		C297.6,130.7,297,130.5,296.6,130.1z M48.1,128.7c-0.8-0.8-0.8-2,0-2.8l0,0c0.8-0.8,2-0.8,2.8,0l0,0c0.8,0.8,0.8,2,0,2.8l0,0
		c-0.4,0.4-0.9,0.6-1.4,0.6l0,0C49,129.3,48.5,129.1,48.1,128.7z M288.9,122.3c-0.8-0.8-0.8-2,0-2.8l0,0c0.8-0.8,2.1-0.8,2.8,0l0,0
		c0.8,0.8,0.8,2.1,0,2.8l0,0c-0.4,0.4-0.9,0.6-1.4,0.6l0,0C289.8,122.9,289.3,122.7,288.9,122.3z M55.8,120.9
		c-0.8-0.8-0.8-2.1,0-2.8l0,0c0.8-0.8,2-0.8,2.8,0l0,0c0.8,0.8,0.8,2,0,2.8l0,0c-0.4,0.4-0.9,0.6-1.4,0.6l0,0
		C56.7,121.5,56.2,121.3,55.8,120.9z M281.2,114.4c-0.8-0.8-0.8-2,0-2.8l0,0c0.8-0.8,2-0.8,2.8,0l0,0c0.8,0.8,0.8,2.1,0,2.8l0,0
		c-0.4,0.4-0.9,0.6-1.4,0.6l0,0C282.1,115,281.6,114.8,281.2,114.4z M63.5,113.1c-0.8-0.8-0.8-2,0-2.8l0,0c0.8-0.8,2-0.8,2.8,0l0,0
		c0.8,0.8,0.8,2,0,2.8l0,0c-0.4,0.4-0.9,0.6-1.4,0.6l0,0C64.4,113.6,63.9,113.4,63.5,113.1z M273.5,106.6c-0.8-0.8-0.8-2,0-2.8l0,0
		c0.8-0.8,2-0.8,2.8,0l0,0c0.8,0.8,0.8,2,0,2.8l0,0c-0.4,0.4-0.9,0.6-1.4,0.6l0,0C274.4,107.2,273.9,107,273.5,106.6z M71.3,105.2
		c-0.8-0.8-0.8-2,0-2.8l0,0c0.8-0.8,2.1-0.8,2.8,0l0,0c0.8,0.8,0.8,2,0,2.8l0,0c-0.4,0.4-0.9,0.6-1.4,0.6l0,0
		C72.2,105.8,71.7,105.6,71.3,105.2z M265.8,98.8c-0.8-0.8-0.8-2.1,0-2.8l0,0c0.8-0.8,2.1-0.8,2.8,0l0,0c0.8,0.8,0.8,2,0,2.8l0,0
		c-0.4,0.4-0.9,0.6-1.4,0.6l0,0C266.7,99.4,266.1,99.2,265.8,98.8z M79,97.4c-0.8-0.8-0.8-2,0-2.8l0,0c0.8-0.8,2-0.8,2.8,0l0,0
		c0.8,0.8,0.8,2,0,2.8l0,0c-0.4,0.4-0.9,0.6-1.4,0.6l0,0C79.9,98,79.4,97.8,79,97.4z M258,91c-0.8-0.8-0.8-2.1,0-2.8l0,0
		c0.8-0.8,2-0.8,2.8,0l0,0c0.8,0.8,0.8,2,0,2.8l0,0c-0.4,0.4-0.9,0.6-1.4,0.6l0,0C258.9,91.5,258.4,91.3,258,91z M86.7,89.6
		c-0.8-0.8-0.8-2,0-2.8l0,0c0.8-0.8,2-0.8,2.8,0l0,0c0.8,0.8,0.8,2.1,0,2.8l0,0c-0.4,0.4-0.9,0.6-1.4,0.6l0,0
		C87.6,90.1,87.1,90,86.7,89.6z M250.3,83.1c-0.8-0.8-0.8-2.1,0-2.8l0,0c0.8-0.8,2-0.8,2.8,0l0,0c0.8,0.8,0.8,2,0,2.8l0,0
		c-0.4,0.4-0.9,0.6-1.4,0.6l0,0C251.2,83.7,250.7,83.5,250.3,83.1z M94.4,81.7c-0.8-0.8-0.8-2,0-2.8l0,0c0.8-0.8,2-0.8,2.8,0l0,0
		c0.8,0.8,0.8,2.1,0,2.8l0,0c-0.4,0.4-0.9,0.6-1.4,0.6l0,0C95.3,82.3,94.8,82.1,94.4,81.7z M242.6,75.3c-0.8-0.8-0.8-2.1,0-2.8l0,0
		c0.8-0.8,2-0.8,2.8,0l0,0c0.8,0.8,0.8,2.1,0,2.8l0,0c-0.4,0.4-0.9,0.6-1.4,0.6l0,0C243.5,75.9,243,75.7,242.6,75.3z M102.2,73.9
		c-0.8-0.8-0.8-2,0-2.8l0,0c0.8-0.8,2.1-0.8,2.8,0l0,0c0.8,0.8,0.8,2,0,2.8l0,0c-0.4,0.4-0.9,0.6-1.4,0.6l0,0
		C103.1,74.5,102.6,74.3,102.2,73.9z M234.9,67.5c-0.8-0.8-0.8-2.1,0-2.8l0,0c0.8-0.8,2-0.8,2.8,0l0,0c0.8,0.8,0.8,2.1,0,2.8l0,0
		c-0.4,0.4-0.9,0.6-1.4,0.6l0,0C235.8,68.1,235.2,67.9,234.9,67.5z M109.9,66.1c-0.8-0.8-0.8-2,0-2.8l0,0c0.8-0.8,2-0.8,2.8,0l0,0
		c0.8,0.8,0.8,2,0,2.8l0,0c-0.4,0.4-0.9,0.6-1.4,0.6l0,0C110.8,66.6,110.3,66.5,109.9,66.1z M227.1,59.6c-0.8-0.8-0.8-2,0-2.8l0,0
		c0.8-0.8,2-0.8,2.8,0l0,0c0.8,0.8,0.8,2.1,0,2.8l0,0c-0.4,0.4-0.9,0.6-1.4,0.6l0,0C228,60.2,227.5,60,227.1,59.6z M117.6,58.2
		c-0.8-0.8-0.8-2,0-2.8l0,0c0.8-0.8,2-0.8,2.8,0l0,0c0.8,0.8,0.8,2,0,2.8l0,0c-0.4,0.4-0.9,0.6-1.4,0.6l0,0
		C118.5,58.8,118,58.6,117.6,58.2z M219.4,51.8c-0.8-0.8-0.8-2,0-2.8l0,0c0.8-0.8,2-0.8,2.8,0l0,0c0.8,0.8,0.8,2.1,0,2.8l0,0
		c-0.4,0.4-0.9,0.6-1.4,0.6l0,0C220.3,52.4,219.8,52.2,219.4,51.8z M125.3,50.4c-0.8-0.8-0.8-2.1,0-2.8l0,0c0.8-0.8,2-0.8,2.8,0l0,0
		c0.8,0.8,0.8,2,0,2.8l0,0c-0.4,0.4-0.9,0.6-1.4,0.6l0,0C126.2,51,125.7,50.8,125.3,50.4z M211.7,44c-0.8-0.8-0.8-2,0-2.8l0,0
		c0.8-0.8,2.1-0.8,2.8,0l0,0c0.8,0.8,0.8,2.1,0,2.8l0,0c-0.4,0.4-0.9,0.6-1.4,0.6l0,0C212.6,44.6,212.1,44.4,211.7,44z M133.1,42.6
		c-0.8-0.8-0.8-2,0-2.8l0,0c0.8-0.8,2-0.8,2.8,0l0,0c0.8,0.8,0.8,2,0,2.8l0,0c-0.4,0.4-0.9,0.6-1.4,0.6l0,0
		C134,43.2,133.5,43,133.1,42.6z M204,36.1c-0.8-0.8-0.8-2,0-2.8l0,0c0.8-0.8,2-0.8,2.8,0l0,0c0.8,0.8,0.8,2,0,2.8l0,0
		c-0.4,0.4-0.9,0.6-1.4,0.6l0,0C204.9,36.7,204.3,36.5,204,36.1z M140.8,34.7c-0.8-0.8-0.8-2,0-2.8l0,0c0.8-0.8,2-0.8,2.8,0l0,0
		c0.8,0.8,0.8,2,0,2.8l0,0c-0.4,0.4-0.9,0.6-1.4,0.6l0,0C141.7,35.3,141.2,35.1,140.8,34.7z M196.2,28.3c-0.8-0.8-0.8-2.1,0-2.8l0,0
		c0.8-0.8,2.1-0.8,2.8,0l0,0c0.8,0.8,0.8,2,0,2.8l0,0c-0.4,0.4-0.9,0.6-1.4,0.6l0,0C197.1,28.9,196.6,28.7,196.2,28.3z M148.5,26.9
		c-0.8-0.8-0.8-2,0-2.8l0,0c0.8-0.8,2-0.8,2.8,0l0,0c0.8,0.8,0.8,2,0,2.8l0,0c-0.4,0.4-0.9,0.6-1.4,0.6l0,0
		C149.4,27.5,148.9,27.3,148.5,26.9z M188.5,20.5c-0.8-0.8-0.8-2.1,0-2.8l0,0c0.8-0.8,2.1-0.8,2.8,0l0,0c0.8,0.8,0.8,2,0,2.8l0,0
		c-0.4,0.4-0.9,0.6-1.4,0.6l0,0C189.4,21.1,188.9,20.9,188.5,20.5z M156.2,19.1c-0.8-0.8-0.8-2,0-2.8l0,0c0.8-0.8,2-0.8,2.8,0l0,0
		c0.8,0.8,0.8,2.1,0,2.8l0,0c-0.4,0.4-0.9,0.6-1.4,0.6l0,0C157.1,19.7,156.6,19.5,156.2,19.1z M180.8,12.6c-0.8-0.8-0.8-2.1,0-2.8
		l0,0c0.8-0.8,2.1-0.8,2.8,0l0,0c0.8,0.8,0.8,2,0,2.8l0,0c-0.4,0.4-0.9,0.6-1.4,0.6l0,0C181.7,13.2,181.2,13,180.8,12.6z M164,11.3
		c-0.8-0.8-0.8-2,0-2.8l0,0c0.8-0.8,2-0.8,2.8,0l0,0c0.8,0.8,0.8,2,0,2.8l0,0c-0.4,0.4-0.9,0.6-1.4,0.6l0,0
		C164.9,11.8,164.4,11.6,164,11.3z M173.1,4.8c-0.3-0.3-0.4-0.6-0.5-0.9l0,0c-0.3-0.1-0.6-0.3-0.9-0.5l0,0c-0.8-0.8-0.8-2,0-2.8l0,0
		c0.8-0.8,2-0.8,2.8,0l0,0c0.3,0.3,0.4,0.6,0.5,0.9l0,0c0.3,0.1,0.6,0.3,0.9,0.5l0,0c0.8,0.8,0.8,2.1,0,2.8l0,0
		c-0.4,0.4-0.9,0.6-1.4,0.6l0,0C174,5.4,173.4,5.2,173.1,4.8z"/>
</g>
<g id="Core">
	<circle id="Ellipse_4_copy_3" class="st0" cx="173.3" cy="174.5" r="49.1"/>
</g>
</svg>
